<svg xmlns="http://www.w3.org/2000/svg" width="56.55" height="37.61" viewBox="0 0 56.55 37.61"><title>IPS znak na sivom</title><path d="M34,19.47H26.37V37.22H27a5.22,5.22,0,0,0,3.08-1A3.49,3.49,0,0,0,31,33.63V31.89h2.85a6.94,6.94,0,0,0,4.91-1.71,5.93,5.93,0,0,0,1.84-4.54,6,6,0,0,0-1.78-4.48A6.72,6.72,0,0,0,34,19.46Zm1.37,7.88a2.68,2.68,0,0,1-1.86.63H31V23.46h2.54a2.58,2.58,0,0,1,1.84.62A2.07,2.07,0,0,1,36,25.69a2.14,2.14,0,0,1-.62,1.66ZM24.26,19.46H19.64V37.22h.79a3.73,3.73,0,0,0,2.86-1.35,4.88,4.88,0,0,0,1-2.92ZM48,25.77c-.86-.19-1.28-.62-1.28-1.3a1.4,1.4,0,0,1,.59-1.14,2.5,2.5,0,0,1,1.59-.47,3,3,0,0,1,1.86.6,2.66,2.66,0,0,1,1,1.71v.16l4.53-.92v-.16a6,6,0,0,0-2.48-3.81A8.37,8.37,0,0,0,49,19.07a8.1,8.1,0,0,0-5.1,1.52,5,5,0,0,0-2,4.14c0,2.72,1.62,4.47,4.81,5.2l3.64.78a2.26,2.26,0,0,1,1.18.5,1.17,1.17,0,0,1,.31.87,1.37,1.37,0,0,1-.63,1.18,3,3,0,0,1-1.79.46,3,3,0,0,1-3.28-2.45v-.15L41.38,32v.15a5.5,5.5,0,0,0,2.53,4,9.29,9.29,0,0,0,5.26,1.42,8.65,8.65,0,0,0,5.22-1.51,5,5,0,0,0,2.12-4.29c0-2.75-1.65-4.51-4.91-5.24Z" fill="#21425d"/><path d="M26.4,6.55v4.68h4.53V6.55A6.55,6.55,0,0,0,24.38,0H19.62V4.54h4.76a2,2,0,0,1,2,2Z" fill="#2c6cb2"/><path d="M4.54,24.29V19.48H0v4.81a6.56,6.56,0,0,0,6.55,6.56h4.8V26.31H6.55a2,2,0,0,1-2-2Z" fill="#fff"/><path d="M0,11.23H4.53V4.53h6.82V0H0Z" fill="#ca4749"/><rect x="9.31" y="9.22" width="7.12" height="7.12" fill="#21425d"/><rect x="11.31" y="19.5" width="3.28" height="3.28" fill="#21425d"/><rect x="19.62" y="11.21" width="3.28" height="3.28" fill="#21425d"/></svg>